<?xml version="1.0" standalone="no"?>
<!DOCTYPE svg PUBLIC "-//W3C//DTD SVG 20010904//EN"
 "http://www.w3.org/TR/2001/REC-SVG-20010904/DTD/svg10.dtd">
<svg version="1.0" xmlns="http://www.w3.org/2000/svg"
 width="788.000000pt" height="788.000000pt" viewBox="0 0 788.000000 788.000000"
 preserveAspectRatio="xMidYMid meet">
<metadata>
Created by potrace 1.14, written by Peter Selinger 2001-2017
</metadata>
<g transform="translate(0.000000,788.000000) scale(0.100000,-0.100000)"
fill="#000000" stroke="none">
<path d="M4214 7852 c-30 -26 -122 -106 -168 -145 -11 -10 -35 -31 -51 -45
-17 -15 -62 -54 -100 -87 -38 -33 -75 -64 -81 -70 -6 -5 -39 -35 -74 -65 -35
-30 -121 -104 -190 -165 -235 -204 -253 -220 -274 -238 -64 -56 -141 -123
-152 -135 -8 -7 -14 -11 -14 -9 0 3 -15 -9 -33 -26 -29 -29 -70 -65 -207 -183
-25 -22 -58 -51 -75 -65 -16 -15 -55 -48 -85 -74 -30 -26 -82 -71 -116 -101
-75 -66 -97 -86 -154 -134 -60 -51 -89 -76 -125 -108 -38 -34 -241 -210 -279
-242 -16 -14 -34 -30 -40 -35 -6 -6 -45 -39 -86 -75 -41 -36 -77 -67 -80 -70
-3 -3 -52 -46 -110 -95 -57 -50 -111 -97 -120 -105 -24 -22 -77 -68 -150 -130
-36 -30 -67 -58 -70 -61 -3 -3 -27 -25 -55 -49 -27 -23 -76 -66 -109 -94 -32
-28 -65 -55 -72 -59 -22 -13 -16 -29 29 -79 23 -25 54 -60 67 -76 42 -49 134
-155 153 -174 10 -10 33 -38 51 -63 19 -24 37 -41 40 -38 3 4 6 2 6 -4 0 -5
10 -21 23 -35 33 -37 115 -131 203 -234 44 -50 104 -119 134 -154 30 -35 63
-73 73 -84 10 -12 40 -46 66 -76 26 -30 99 -113 161 -185 62 -71 137 -157 166
-190 29 -33 62 -71 73 -85 11 -14 29 -34 39 -45 26 -28 274 -315 298 -344 10
-13 28 -33 40 -45 11 -11 49 -55 85 -96 35 -41 69 -80 74 -86 6 -6 30 -35 55
-64 25 -29 50 -58 55 -64 6 -6 37 -42 70 -81 33 -38 69 -79 80 -91 11 -11 38
-43 60 -69 22 -27 47 -56 55 -64 9 -9 45 -50 80 -91 36 -41 70 -80 75 -86 6
-6 28 -32 50 -58 22 -27 49 -58 60 -70 37 -41 141 -162 203 -235 50 -59 62
-71 70 -71 7 0 32 20 92 74 14 12 77 66 140 121 63 54 120 104 126 110 6 5 33
29 60 51 27 23 60 52 74 65 14 13 41 37 60 53 35 28 142 122 186 161 12 11 45
40 73 63 28 24 51 47 51 50 0 4 -15 23 -33 43 -17 20 -54 62 -82 94 -27 32
-54 63 -60 69 -5 6 -53 61 -104 121 -52 61 -102 117 -110 126 -9 9 -27 29 -40
45 -38 45 -205 238 -211 244 -4 4 -87 99 -157 180 -12 14 -30 34 -40 46 -63
73 -138 159 -207 238 -43 50 -92 107 -110 126 -17 19 -54 62 -81 95 -28 33
-57 67 -65 75 -9 8 -36 40 -60 70 l-45 55 0 90 0 91 -83 1 c-46 1 -84 3 -86 5
-5 7 -262 305 -283 328 -59 66 -93 106 -93 111 0 3 21 24 48 46 26 23 56 49
67 60 11 10 67 58 125 107 58 50 110 95 115 100 6 6 39 36 75 66 35 30 72 62
80 70 18 16 32 29 150 129 41 35 77 67 80 70 3 4 39 35 80 70 41 35 82 71 91
80 9 9 27 25 40 35 30 24 147 126 169 146 9 8 42 38 75 65 32 28 79 69 104 92
46 42 88 70 94 62 9 -12 132 -156 141 -165 6 -6 22 -24 36 -40 106 -124 155
-180 164 -189 6 -5 29 -32 50 -59 22 -26 49 -58 60 -70 12 -12 41 -46 66 -75
25 -29 52 -61 61 -70 8 -9 44 -50 80 -91 35 -41 69 -80 74 -86 6 -6 30 -35 55
-64 25 -29 52 -60 60 -69 9 -9 45 -50 80 -91 36 -41 67 -77 70 -80 3 -3 60
-68 125 -145 66 -77 125 -144 131 -150 10 -10 115 -131 150 -173 10 -13 30
-36 44 -51 14 -15 46 -52 72 -82 25 -29 54 -63 65 -75 73 -84 131 -150 146
-168 26 -31 97 -113 139 -160 20 -22 45 -51 56 -63 11 -13 23 -23 27 -23 6 0
120 96 166 140 9 8 29 26 45 40 53 45 169 145 180 155 6 5 37 33 69 60 32 28
63 55 69 60 6 6 76 67 156 135 176 152 185 161 173 169 -6 3 -70 76 -143 161
-73 85 -141 164 -152 175 -10 11 -28 31 -39 45 -11 14 -33 39 -47 55 -15 17
-56 64 -91 105 -36 41 -70 80 -75 85 -6 6 -36 39 -66 75 -30 36 -59 70 -65 76
-38 41 -123 141 -136 160 -8 13 -19 21 -22 17 -4 -3 -7 -1 -7 5 0 6 -8 19 -18
29 -10 10 -58 65 -107 123 -50 57 -97 111 -105 120 -8 9 -35 40 -60 69 -60 70
-54 64 -140 162 -80 92 -165 189 -200 229 -44 51 -67 77 -126 145 -33 39 -72
83 -85 99 -13 16 -37 44 -54 62 -16 18 -39 43 -49 56 -28 33 -137 159 -161
184 -11 11 -29 32 -40 46 -26 33 -103 123 -135 157 -14 15 -50 56 -80 91 -30
35 -63 73 -73 84 -11 12 -33 38 -50 60 -18 21 -41 48 -53 60 -11 11 -47 52
-80 91 -32 38 -63 75 -69 81 -5 6 -35 39 -65 74 -30 35 -68 78 -85 97 l-30 33
-31 -28z"/>
<path d="M3978 5784 c-29 -26 -67 -59 -85 -75 -35 -31 -255 -223 -348 -303
-33 -28 -66 -58 -75 -66 -9 -8 -36 -32 -60 -52 -25 -20 -65 -55 -90 -77 -25
-23 -66 -58 -92 -78 -26 -21 -47 -42 -47 -48 -1 -5 12 -24 27 -41 15 -18 36
-42 47 -55 51 -58 180 -207 204 -234 14 -16 71 -82 125 -145 55 -63 102 -117
105 -120 3 -3 33 -36 66 -75 33 -38 64 -75 70 -81 5 -6 21 -24 35 -40 14 -16
52 -61 86 -99 33 -39 69 -80 80 -93 10 -13 33 -38 49 -56 17 -18 41 -46 54
-62 67 -80 147 -170 158 -177 7 -4 13 -15 13 -22 0 -8 4 -15 8 -15 5 0 40 -37
79 -82 38 -46 84 -99 101 -118 17 -19 39 -44 49 -56 10 -12 41 -48 70 -80 28
-32 102 -117 163 -189 62 -71 127 -146 144 -165 17 -19 74 -84 125 -144 l95
-109 -40 -34 c-21 -19 -50 -44 -64 -56 -14 -12 -56 -49 -95 -82 -38 -33 -76
-67 -85 -75 -9 -8 -42 -37 -74 -65 -33 -27 -64 -55 -70 -60 -16 -15 -226 -197
-260 -226 -15 -13 -38 -33 -50 -44 -12 -11 -45 -39 -73 -62 -27 -24 -61 -53
-75 -65 -13 -13 -48 -43 -77 -68 -29 -25 -62 -54 -75 -65 -221 -195 -339 -295
-350 -295 -6 0 -20 12 -31 26 -20 27 -40 51 -83 99 -15 16 -42 48 -61 70 -18
22 -52 60 -75 85 -36 40 -78 89 -167 194 -13 16 -29 34 -35 40 -5 6 -39 45
-74 86 -36 41 -74 84 -85 96 -11 12 -39 43 -61 70 -23 27 -50 59 -60 70 -11
12 -40 46 -66 75 -25 30 -54 63 -65 75 -10 12 -43 50 -73 84 -30 35 -64 74
-75 86 -11 12 -40 46 -65 75 -25 29 -52 61 -60 69 -8 9 -39 45 -69 81 -30 35
-62 71 -70 80 -9 9 -27 29 -40 45 -26 31 -139 162 -156 180 -5 6 -30 34 -55
63 -25 29 -54 63 -65 75 -11 12 -42 49 -70 81 -27 32 -54 63 -60 69 -5 6 -39
45 -75 86 -36 41 -80 91 -97 110 -18 19 -33 38 -33 42 0 4 -9 12 -20 18 -18
10 -30 3 -93 -52 -40 -35 -74 -65 -77 -68 -3 -3 -52 -46 -110 -95 -58 -50
-114 -99 -126 -110 -12 -11 -43 -39 -70 -61 -27 -23 -62 -54 -77 -68 -15 -14
-30 -26 -32 -26 -2 0 -15 -10 -27 -22 -24 -23 -117 -105 -193 -169 -59 -50
-65 -56 -65 -69 0 -6 33 -48 72 -93 40 -45 96 -109 123 -141 28 -32 59 -68 70
-80 11 -12 45 -50 75 -86 30 -36 60 -70 65 -76 11 -12 108 -123 138 -158 10
-12 42 -48 70 -80 66 -75 72 -81 132 -152 47 -55 69 -80 191 -220 29 -33 71
-81 94 -109 23 -27 50 -57 59 -66 9 -9 25 -27 35 -40 11 -13 47 -55 80 -94 34
-38 72 -83 86 -99 14 -16 30 -34 35 -40 6 -6 53 -60 105 -121 52 -60 102 -117
110 -126 8 -9 38 -42 65 -74 28 -32 55 -63 60 -69 6 -6 52 -61 104 -121 52
-61 106 -122 120 -137 14 -15 31 -33 36 -40 22 -28 200 -234 219 -254 12 -12
28 -30 36 -40 31 -37 214 -249 224 -260 6 -6 29 -32 51 -58 22 -27 54 -63 70
-81 17 -18 50 -56 75 -86 25 -29 59 -68 75 -86 l30 -32 35 30 c19 17 62 54 95
84 33 29 76 65 95 81 19 16 40 34 46 39 11 10 108 96 150 132 12 10 47 41 79
68 32 28 67 58 78 68 10 10 49 44 85 74 37 31 77 65 88 77 12 12 32 30 45 40
53 43 144 122 154 132 5 7 48 44 95 84 90 76 192 165 219 190 9 8 64 55 121
104 58 50 112 97 121 105 17 17 37 34 144 126 110 95 136 117 185 161 43 39
304 264 364 315 16 13 41 35 56 49 15 14 40 36 56 49 67 56 159 136 164 142 3
3 39 35 80 70 41 35 80 68 86 74 6 5 37 33 69 60 32 28 63 55 69 60 6 6 45 39
86 75 41 36 77 67 80 70 3 3 37 32 75 65 93 80 97 84 93 94 -3 9 -77 98 -113
136 -11 12 -45 51 -75 86 -30 35 -59 69 -65 75 -5 6 -32 37 -60 69 -27 33 -99
115 -160 184 -60 70 -116 134 -125 145 -15 18 -25 30 -85 98 -16 18 -59 67
-95 108 -36 41 -69 80 -75 86 -5 6 -28 32 -50 59 -22 26 -45 54 -52 60 -7 7
-44 50 -84 96 -39 46 -79 91 -88 100 -9 9 -25 27 -35 40 -25 31 -199 233 -206
239 -3 3 -35 39 -70 80 -36 41 -77 89 -91 105 -51 58 -115 131 -169 194 -30
35 -60 69 -65 75 -6 6 -53 61 -105 121 -52 61 -99 115 -105 121 -5 6 -29 33
-52 61 -24 27 -54 63 -69 79 -14 16 -36 40 -48 54 -61 70 -162 186 -171 196
-5 6 -30 35 -55 64 -25 30 -52 61 -60 70 -8 9 -40 45 -70 80 -30 36 -71 83
-92 105 -20 22 -51 59 -70 82 -18 23 -38 42 -45 42 -7 1 -36 -20 -65 -45z"/>
</g>
</svg>
